<svg width="17" height="17" viewBox="0 0 17 17" fill="none" xmlns="http://www.w3.org/2000/svg">
<path d="M16.8351 16.0412L9.29757 8.50332L16.8351 0.965413C16.8872 0.913276 16.9286 0.85137 16.9569 0.783233C16.9851 0.715096 16.9996 0.642062 16.9996 0.568306C16.9996 0.49455 16.9851 0.421517 16.9569 0.35338C16.9286 0.285242 16.8872 0.223337 16.8351 0.1712C16.783 0.119053 16.7211 0.0776827 16.6531 0.0494567C16.585 0.0212307 16.512 0.00670309 16.4383 0.00670309C16.3646 0.00670309 16.2916 0.0212307 16.2236 0.0494567C16.1555 0.0776827 16.0936 0.119053 16.0416 0.1712L8.50332 7.70911L0.965086 0.1712C0.91327 0.117604 0.851299 0.0748642 0.782787 0.0454739C0.714276 0.0160835 0.640596 0.000631326 0.566049 1.8945e-05C0.491502 -0.000593436 0.41758 0.0136459 0.348595 0.0419068C0.27961 0.0701676 0.216943 0.111884 0.164254 0.164621C0.111564 0.217358 0.0699052 0.28006 0.0417082 0.349069C0.0135111 0.418078 -0.000659157 0.492011 2.35448e-05 0.566555C0.000706247 0.641098 0.0162281 0.714759 0.0456843 0.78324C0.0751406 0.851721 0.117941 0.913649 0.171588 0.965413L7.70982 8.50332L0.171588 16.0412C0.119416 16.0934 0.0780281 16.1553 0.0497907 16.2234C0.0215533 16.2915 0.00701924 16.3646 0.00701924 16.4383C0.00701924 16.5121 0.0215533 16.5851 0.0497907 16.6533C0.0780281 16.7214 0.119416 16.7833 0.171588 16.8354C0.223727 16.8876 0.285636 16.929 0.353776 16.9572C0.421916 16.9855 0.494952 17 0.568712 17C0.642471 17 0.715507 16.9855 0.783647 16.9572C0.851787 16.929 0.913696 16.8876 0.965835 16.8354L8.50407 9.29753L16.0423 16.8354C16.0944 16.8876 16.1562 16.929 16.2243 16.9572C16.2924 16.9854 16.3654 16.9999 16.4391 16.9999C16.5128 16.9999 16.5857 16.9854 16.6538 16.9572C16.7219 16.929 16.7837 16.8876 16.8358 16.8354C16.8879 16.7833 16.9293 16.7213 16.9574 16.6531C16.9856 16.585 17.0001 16.5119 17 16.4382C16.9999 16.3644 16.9853 16.2914 16.957 16.2233C16.9287 16.1552 16.8873 16.0933 16.8351 16.0412Z" fill="#F4F0EA"/>
</svg>
