<svg width="43" height="43" viewBox="0 0 43 43" fill="none" xmlns="http://www.w3.org/2000/svg">
<path d="M22.7048 0.0995133C17.053 -0.258954 11.4904 1.64162 7.24044 5.38313C2.99052 9.12464 0.401479 14.4006 0.0428875 20.0504C-0.315704 25.7001 1.58552 31.2609 5.32832 35.5093C9.07112 39.7578 14.3489 42.3459 20.0006 42.7044C22.9368 42.9134 25.884 42.4976 28.6478 41.4847C31.4116 40.4717 33.9291 38.8846 36.0344 36.8279C38.1479 34.8715 39.8293 32.4953 40.9707 29.8515C42.1121 27.2078 42.6883 24.3548 42.6625 21.4754C42.6957 16.0385 40.6467 10.795 36.9357 6.82025C33.2246 2.84551 28.1329 0.440865 22.7048 0.0995133ZM35.035 36.299C31.183 39.8682 26.0724 41.7649 20.8236 41.5732C10.5802 41.8229 0.322119 32.4058 1.17451 19.8594C1.57331 14.6321 3.98503 9.76326 7.90214 6.27753C11.8192 2.7918 16.9363 0.960978 22.1764 1.17036C27.4164 1.37974 32.371 3.61299 35.9973 7.40013C39.6236 11.1873 41.6389 16.233 41.619 21.4754C41.663 24.2758 41.0968 27.0522 39.9599 29.6119C38.823 32.1717 37.1425 34.4535 35.035 36.299Z" fill="#FAF6F1"/>
<path d="M22.9542 14.3051C22.9731 13.9089 23.144 13.5351 23.4314 13.2615C23.7188 12.9879 24.1005 12.8355 24.4974 12.836C25.0117 12.836 25.5408 12.836 26.0552 12.836V8.97217H22.5721C21.8633 8.99813 21.1713 9.19465 20.5547 9.54504C19.9381 9.89543 19.4152 10.3893 19.0303 10.9849C18.4639 11.8239 18.1854 12.8241 18.2367 13.835C18.2367 15.025 18.2367 16.215 18.2367 17.4491H15.1357V21.4745H18.2514V33.8593H22.9689V21.4745C23.836 21.4745 24.6149 21.4745 25.3938 21.4745C25.4933 21.4936 25.5956 21.4927 25.6947 21.4719C25.7938 21.4511 25.8878 21.4109 25.9712 21.3535C26.0546 21.296 26.1258 21.2226 26.1806 21.1375C26.2353 21.0523 26.2727 20.9572 26.2903 20.8575C26.6283 19.9319 27.0251 19.0357 27.3779 18.1249C27.3779 17.9339 27.4807 17.7135 27.5542 17.4491H22.9542C22.9542 16.3325 22.9248 15.3188 22.9542 14.3051Z" fill="#FAF6F1"/>
</svg>
