<svg width="190" height="35" viewBox="0 0 190 35" fill="none" xmlns="http://www.w3.org/2000/svg">
<path d="M0.0218158 1.90876V2.58343H0.970783C1.6033 2.58108 2.22615 2.73829 2.78145 3.04045C3.13566 3.19561 3.42483 3.46871 3.59952 3.81305C3.82037 4.61304 3.90517 5.44432 3.8504 6.2723V22.1269C3.96981 23.0987 3.79507 24.0841 3.34865 24.9561C3.04032 25.2728 2.66462 25.5165 2.24929 25.669C1.83395 25.8216 1.38958 25.8792 0.948967 25.8375H0V26.523H11.4966V25.8375H10.5368C9.90599 25.8394 9.28306 25.6979 8.7152 25.424C8.3591 25.2593 8.06216 24.9896 7.8644 24.6514C7.64315 23.844 7.55836 23.0055 7.61353 22.1704V14.4335H12.5111C13.2062 14.4025 13.9003 14.5136 14.5508 14.76C15.0091 14.9736 15.3901 15.3232 15.6415 15.7611C15.9572 16.4408 16.0888 17.1912 16.0233 17.9374H16.765V9.53679H16.0233C15.9911 10.5335 15.6044 11.4862 14.9325 12.2246C14.2239 12.7404 13.3525 12.9838 12.4783 12.9101H7.63534V3.26897H13.5691C14.6109 3.21762 15.654 3.33897 16.656 3.62806C17.3105 3.85269 17.8887 4.2561 18.3248 4.7924C18.8849 5.54299 19.2891 6.39758 19.5138 7.30605H20.2337L19.9719 1.86523L0.0218158 1.90876Z" fill="#4E374B"/>
<path d="M33.7702 22.9215C32.855 23.5425 31.768 23.8621 30.6615 23.8356C29.7761 23.8253 28.9027 23.6292 28.0984 23.2598C27.294 22.8905 26.5766 22.3562 25.993 21.6919C24.6249 20.0781 23.9299 18.002 24.0515 15.892H36.5734C36.6166 14.9841 36.4647 14.0775 36.128 13.233C35.7912 12.3884 35.2774 11.6255 34.621 10.9952C33.259 9.75113 31.4596 9.09409 29.6144 9.16712C28.506 9.13577 27.403 9.33102 26.3732 9.74085C25.3433 10.1507 24.4084 10.7664 23.6261 11.5502C22.8013 12.4411 22.1663 13.4897 21.7595 14.6325C21.3527 15.7753 21.1824 16.9886 21.2591 18.1989C21.1995 19.3455 21.3759 20.4922 21.7773 21.5683C22.1788 22.6443 22.7968 23.627 23.5933 24.4558C24.3147 25.2019 25.1811 25.7932 26.1395 26.1937C27.0979 26.5941 28.1281 26.7951 29.1671 26.7845C30.0968 26.8101 31.0216 26.6413 31.882 26.289C32.7424 25.9367 33.5193 25.4086 34.1628 24.7387C35.4213 23.5111 36.2706 21.9269 36.5952 20.2011L35.9844 19.842C35.5678 21.0643 34.7972 22.136 33.7702 22.9215V22.9215ZM25.5567 11.6264C26.3558 10.8799 27.4071 10.4604 28.5018 10.4512C29.2242 10.447 29.9325 10.6511 30.5415 11.0388C31.1758 11.4188 31.6899 11.9694 32.0249 12.6275C32.2854 13.347 32.4254 14.1043 32.4394 14.8691H24.0515C24.1182 13.6357 24.6571 12.475 25.5567 11.6264Z" fill="#4E374B"/>
<path d="M45.463 24.793C45.2492 24.1446 45.164 23.4608 45.2122 22.7799V0.711914H44.3396L38.8857 2.75766L39.2348 3.37791C39.6493 3.21422 40.0876 3.11868 40.5328 3.095C40.8161 3.08234 41.0958 3.1626 41.329 3.32351C41.5581 3.57114 41.7064 3.88228 41.7544 4.2158C41.8767 5.36132 41.9205 6.51382 41.8853 7.66528V22.7799C41.9234 23.482 41.8385 24.1853 41.6345 24.8583C41.4882 25.1891 41.2347 25.4613 40.9146 25.6309C40.3687 25.821 39.7898 25.8988 39.213 25.8594V26.5232H48.1463V25.8594C47.499 25.8987 46.8503 25.8099 46.2375 25.5982C45.8832 25.4419 45.605 25.1526 45.463 24.793V24.793Z" fill="#4E374B"/>
<path d="M56.1418 4.37886C56.66 4.38737 57.1623 4.2009 57.5489 3.85654C57.7341 3.69517 57.8825 3.49612 57.9843 3.27277C58.086 3.04942 58.1386 2.80694 58.1386 2.56163C58.1386 2.31631 58.086 2.07384 57.9843 1.85049C57.8825 1.62714 57.7341 1.4281 57.5489 1.26672C57.167 0.913614 56.6624 0.722415 56.1418 0.733513C55.6111 0.720734 55.0958 0.911591 54.702 1.26672C54.5168 1.4281 54.3683 1.62714 54.2666 1.85049C54.1649 2.07384 54.1123 2.31631 54.1123 2.56163C54.1123 2.80694 54.1649 3.04942 54.2666 3.27277C54.3683 3.49612 54.5168 3.69517 54.702 3.85654C55.0969 4.2087 55.6124 4.39573 56.1418 4.37886V4.37886Z" fill="#4E374B"/>
<path d="M58.0176 24.7821C57.8101 24.1137 57.7288 23.4127 57.7776 22.7146V9.39551H56.905L51.4512 11.4304L51.7348 12.0942C52.1704 11.9252 52.6312 11.8296 53.0982 11.8112C53.3821 11.7935 53.6634 11.8742 53.8945 12.0397C54.1219 12.2584 54.281 12.5381 54.3526 12.845C54.4979 14.0143 54.5526 15.193 54.5162 16.3706V22.7799C54.5647 23.4831 54.4758 24.189 54.2544 24.8583C54.1082 25.1892 53.8546 25.4613 53.5345 25.6309C52.9625 25.822 52.3585 25.8997 51.7566 25.8594V26.5232H60.559V25.8594C59.9542 25.9095 59.3459 25.8201 58.7811 25.5983C58.4389 25.4235 58.1688 25.1347 58.0176 24.7821V24.7821Z" fill="#4E374B"/>
<path d="M73.4411 9.17783C72.3892 9.18002 71.3599 9.48206 70.4743 10.0484C69.3127 10.8547 68.3473 11.9107 67.6492 13.1387V9.254H66.9075L61.3228 11.3215L61.5846 11.9091C61.9626 11.752 62.3646 11.66 62.7735 11.6371C63.0987 11.6168 63.4223 11.6966 63.7006 11.8656C63.9411 12.0234 64.1216 12.2571 64.2133 12.5294C64.3726 13.1989 64.4314 13.8883 64.3878 14.5751V30.2447C64.4349 31.0053 64.365 31.7686 64.1806 32.5081C64.0672 32.7728 63.8673 32.9915 63.6134 33.1283C63.0394 33.4151 62.3999 33.5464 61.7591 33.5092H61.2573V34.1947H70.7579V33.5092C70.0639 33.5533 69.3678 33.4647 68.7072 33.248C68.3655 33.1093 68.0836 32.8551 67.911 32.5298C67.7036 31.8241 67.626 31.0868 67.6819 30.3535V25.3262C68.2104 25.7897 68.8157 26.1579 69.4708 26.4143C70.8675 26.8775 72.366 26.9426 73.7978 26.6023C75.2296 26.2621 76.5378 25.5299 77.5751 24.4883C78.4758 23.5336 79.1777 22.4101 79.6401 21.1829C80.1026 19.9557 80.3164 18.6492 80.2693 17.3391C80.375 15.0644 79.5931 12.8374 78.0878 11.1256C77.4959 10.491 76.7755 9.98909 75.9744 9.65328C75.1733 9.31747 74.3098 9.1554 73.4411 9.17783V9.17783ZM75.11 24.2815C74.7177 24.7406 74.2265 25.1052 73.6731 25.3483C73.1197 25.5913 72.5184 25.7065 71.9141 25.6853C70.9417 25.7314 69.9819 25.4518 69.1872 24.8909C68.5332 24.4464 68.049 23.7945 67.8128 23.041C67.6696 22.1673 67.6148 21.2814 67.6492 20.3968V14.216C68.3377 13.4564 69.1267 12.7938 69.9943 12.2464C70.5842 11.953 71.2331 11.7968 71.8923 11.7894C72.4665 11.7899 73.0333 11.9193 73.5506 12.1679C74.068 12.4165 74.5227 12.7781 74.881 13.2258C76.2089 14.8737 76.8669 16.9596 76.7243 19.0692C76.8497 20.9459 76.2747 22.8025 75.11 24.2815V24.2815Z" fill="#4E374B"/>
<path d="M96.2597 22.9213C95.3451 23.5436 94.2577 23.8634 93.151 23.8354C92.267 23.8264 91.3949 23.6307 90.5921 23.2612C89.7893 22.8917 89.0741 22.3568 88.4935 21.6917C87.1174 20.0818 86.4179 18.0039 86.541 15.8918H99.0629C99.1124 14.9767 98.9637 14.0618 98.6267 13.2093C98.2898 12.3567 97.7726 11.5867 97.1105 10.9515C95.7519 9.70911 93.9565 9.0521 92.1148 9.12342C91.0063 9.09078 89.9029 9.28544 88.8729 9.69534C87.8429 10.1053 86.9081 10.7217 86.1265 11.5065C85.2865 12.3981 84.6384 13.4518 84.2219 14.6027C83.8055 15.7537 83.6296 16.9774 83.705 18.1987C83.648 19.3451 83.8256 20.491 84.2269 21.5667C84.6282 22.6424 85.2448 23.6254 86.0392 24.4556C86.7606 25.2017 87.627 25.7931 88.5854 26.1935C89.5438 26.5939 90.574 26.7949 91.613 26.7843C92.5442 26.8088 93.4703 26.6395 94.3322 26.2873C95.1942 25.9351 95.9732 25.4076 96.6196 24.7386C97.8753 23.5104 98.7208 21.9259 99.0411 20.2009L98.4303 19.8418C98.0255 21.0587 97.2706 22.1297 96.2597 22.9213V22.9213ZM88.0681 11.6262C88.8591 10.8739 89.9094 10.4532 91.0022 10.451C91.7246 10.4469 92.4329 10.6509 93.0419 11.0386C93.6789 11.4153 94.1938 11.9668 94.5254 12.6273C94.7858 13.3468 94.9258 14.1041 94.9399 14.8689H86.5519C86.6182 13.6332 87.1616 12.471 88.0681 11.6262V11.6262Z" fill="#4E374B"/>
<path d="M166.145 22.7039V20.4296C166.12 20.0674 166.12 19.7038 166.145 19.3415V0.200684H165.251L159.851 2.24643L160.113 2.86668C160.548 2.70792 161.004 2.61263 161.466 2.58376C161.752 2.57486 162.034 2.6547 162.273 2.81228C162.528 3.04517 162.691 3.3619 162.731 3.70457C162.859 4.85696 162.903 6.0171 162.862 7.17582V10.2444C161.792 9.29606 160.398 8.79358 158.968 8.8407C157.756 8.81054 156.554 9.06344 155.457 9.57924C154.361 10.095 153.4 10.8594 152.652 11.8114C151.085 13.628 150.218 15.9432 150.209 18.3404C150.166 19.41 150.337 20.4775 150.712 21.4807C151.086 22.4838 151.657 23.4027 152.391 24.1838C153.046 24.9024 153.844 25.4767 154.734 25.8702C155.624 26.2636 156.587 26.4676 157.561 26.4689C158.5 26.476 159.429 26.2831 160.288 25.9031C161.253 25.4444 162.131 24.8222 162.884 24.0641V26.4472H169.177V25.7725C165.938 26.0446 166.145 22.7039 166.145 22.7039ZM162.873 22.8345C162.438 23.3323 161.907 23.7366 161.31 24.0229C160.714 24.3091 160.065 24.4712 159.404 24.4994C158.653 24.479 157.916 24.294 157.245 23.9573C156.574 23.6207 155.985 23.1407 155.521 22.5516C154.267 20.9621 153.645 18.9663 153.776 16.9475C153.637 14.9417 154.291 12.9614 155.597 11.4305C155.983 10.9893 156.457 10.6335 156.988 10.3861C157.52 10.1387 158.098 10.0052 158.684 9.99416C159.356 10.006 160.016 10.1815 160.604 10.5056C161.265 10.8549 161.811 11.3878 162.175 12.0399C162.572 12.7258 162.811 13.4917 162.873 14.2815V22.8345Z" fill="#4E374B"/>
<path d="M132.43 7.61116H133.193L132.888 1.83301H110.974L110.669 7.61116H111.411C111.445 6.66352 111.752 5.74574 112.294 4.96692C112.731 4.36123 113.338 3.89906 114.039 3.63936C114.922 3.43211 115.828 3.34426 116.734 3.3782H120.006V22.149C120.096 23.0534 119.945 23.9654 119.57 24.7933C119.275 25.132 118.904 25.3949 118.486 25.5597C118.068 25.7246 117.617 25.7864 117.17 25.74H116.199V26.4255H127.565V25.74H126.638C126.225 25.7777 125.808 25.7306 125.414 25.6014C125.02 25.4723 124.657 25.2639 124.347 24.9891C123.875 24.1217 123.688 23.1282 123.813 22.149V3.3782H127.565C128.49 3.34275 129.411 3.51763 130.259 3.88964C130.949 4.22764 131.519 4.76644 131.895 5.43483C132.199 6.12355 132.38 6.86014 132.43 7.61116V7.61116Z" fill="#4E374B"/>
<path d="M145.813 24.3034C145.622 24.3081 145.434 24.2508 145.279 24.1401C145.098 23.9416 144.986 23.6894 144.962 23.4219C144.865 22.4604 144.832 21.4934 144.864 20.5274V14.8907C144.942 13.8185 144.82 12.7412 144.504 11.7133C144.156 10.9517 143.555 10.333 142.803 9.96134C141.556 9.41795 140.203 9.15777 138.843 9.19962C137.112 9.09338 135.393 9.5517 133.946 10.5054C133.451 10.8101 133.036 11.2273 132.735 11.7229C132.433 12.2184 132.254 12.7783 132.211 13.3564C132.194 13.5896 132.225 13.8238 132.301 14.0447C132.378 14.2656 132.5 14.4683 132.659 14.6404C132.811 14.8125 132.999 14.9486 133.21 15.039C133.422 15.1293 133.651 15.1716 133.88 15.1628C134.099 15.1717 134.318 15.1357 134.522 15.0571C134.727 14.9785 134.913 14.8589 135.069 14.7057C135.23 14.5345 135.353 14.3322 135.432 14.1113C135.511 13.8904 135.543 13.6556 135.527 13.4217V12.3335C135.534 12.0583 135.604 11.7884 135.733 11.5449C135.862 11.3014 136.045 11.0909 136.269 10.9298C136.835 10.4926 137.539 10.2725 138.254 10.3096C138.714 10.2788 139.175 10.3452 139.608 10.5046C140.04 10.664 140.434 10.9128 140.763 11.2345C141.438 12.2353 141.739 13.4407 141.614 14.6404V15.3042C139.324 16.0145 137.093 16.8985 134.938 17.9485C133.824 18.4697 132.86 19.2632 132.135 20.2554C131.734 20.8816 131.529 21.6127 131.546 22.3555C131.522 22.9262 131.618 23.4956 131.826 24.0276C132.035 24.5595 132.351 25.0425 132.757 25.4459C133.167 25.8397 133.653 26.1467 134.186 26.3486C134.718 26.5506 135.285 26.6432 135.855 26.6211C136.635 26.6257 137.408 26.4663 138.123 26.1532C139.325 25.4685 140.48 24.7052 141.581 23.8681C141.523 24.6188 141.74 25.3649 142.192 25.9682C142.39 26.177 142.631 26.3406 142.898 26.4476C143.166 26.5547 143.453 26.6027 143.741 26.5885C145.093 26.5885 146.489 25.6853 147.973 23.8681V22.8452C147.483 23.341 146.95 23.7925 146.38 24.1945C146.2 24.2673 146.008 24.3042 145.813 24.3034ZM137.622 24.5101C137.253 24.5082 136.89 24.4299 136.553 24.28C136.217 24.1301 135.916 23.912 135.669 23.6396C135.385 23.3549 135.162 23.0146 135.016 22.6401C134.869 22.2656 134.802 21.8649 134.818 21.4632C134.826 20.7731 135.06 20.1044 135.484 19.559C136.08 18.851 136.824 18.2826 137.665 17.8941C138.254 17.5894 139.541 17.0779 141.537 16.3489V22.6929C140.443 23.6744 139.079 24.3072 137.622 24.5101Z" fill="#4E374B"/>
<path d="M189.923 25.8161C186.76 26.0663 186.946 22.7039 186.946 22.7039V20.4296C186.946 19.3415 186.946 20.2229 186.946 19.3415V0.200684H186.062L180.608 2.24643L180.87 2.86668C181.308 2.70568 181.768 2.61034 182.234 2.58377C182.391 2.55834 182.551 2.56754 182.705 2.61072C182.858 2.6539 183 2.73001 183.12 2.83371C183.241 2.93741 183.337 3.06618 183.403 3.21098C183.468 3.35579 183.501 3.51312 183.499 3.67193C183.633 4.82388 183.68 5.98418 183.641 7.14317V10.2118C182.554 9.25512 181.14 8.75245 179.692 8.80806C178.482 8.77704 177.281 9.02962 176.186 9.54554C175.091 10.0615 174.132 10.8263 173.387 11.7787C171.815 13.5929 170.948 15.9097 170.944 18.3077C170.901 19.3774 171.071 20.4451 171.446 21.4483C171.82 22.4516 172.391 23.3704 173.126 24.1512C173.781 24.8697 174.579 25.4441 175.469 25.8375C176.359 26.231 177.322 26.4349 178.296 26.4363C179.235 26.4451 180.165 26.2521 181.023 25.8705C181.988 25.4118 182.867 24.7896 183.619 24.0315V26.4145H189.912L189.923 25.8161ZM183.695 22.8345C183.259 23.3304 182.727 23.7334 182.131 24.0194C181.535 24.3055 180.887 24.4687 180.227 24.4994C179.474 24.4791 178.735 24.2942 178.062 23.9576C177.389 23.621 176.799 23.141 176.332 22.5516C175.082 20.9605 174.464 18.9649 174.598 16.9475C174.459 14.9417 175.113 12.9614 176.42 11.4305C176.807 10.989 177.283 10.6331 177.817 10.3858C178.35 10.1384 178.929 10.005 179.518 9.99416C180.186 10.0073 180.841 10.1828 181.426 10.5056C182.075 10.8599 182.609 11.3924 182.964 12.0399C183.365 12.725 183.607 13.4909 183.673 14.2815L183.695 22.8345Z" fill="#4E374B"/>
</svg>
