<svg width="46" height="51" viewBox="0 0 46 51" fill="none" xmlns="http://www.w3.org/2000/svg">
<path d="M26.0498 44.8299C25.9245 44.1657 25.7232 43.5181 25.4498 42.8999C23.5098 38.3599 22.8698 36.3799 22.8698 36.3799C22.8698 36.3799 22.7798 36.6599 22.4398 37.5899C22.0798 39.6299 22.0998 44.3699 26.0498 44.8299Z" fill="#4E374B"/>
<path d="M42.19 9.6499C32.19 11.8199 22.87 28.2599 22.87 28.2599C22.87 28.2599 13.61 11.8899 3.6 9.6699C2.2726 11.2693 1.06912 12.9675 0 14.7499C3.61 16.0599 18.53 22.1499 22.86 35.1499C27.23 22.0599 42.31 15.9699 45.79 14.7199C44.7155 12.9442 43.5123 11.2496 42.19 9.6499Z" fill="#4E374B"/>
<path d="M22.8596 27.32C30.2896 12.53 38.0496 8.77004 40.6496 7.89004C39.0707 6.17553 37.3142 4.63355 35.4096 3.29004C28.1996 7.29004 22.9796 19.29 22.8396 19.65C22.6996 19.32 17.4996 7.37004 10.3196 3.32004C8.41855 4.66408 6.66838 6.20973 5.09961 7.93004C7.79961 8.83004 15.5396 12.65 22.8596 27.32Z" fill="#4E374B"/>
<path d="M22.8701 17.98C26.6601 9.45 30.9901 4.13 33.6501 2.15C32.0796 1.22765 30.3999 0.505379 28.6501 0C24.4801 4 22.8601 11.69 22.8601 11.69C22.8601 11.69 21.2401 4.02 17.0801 0.0199995C15.3289 0.526142 13.6489 1.25191 12.0801 2.18C14.8001 4.17 19.1001 9.48 22.8701 17.98Z" fill="#4E374B"/>
<path d="M20.5399 42.6602C20.4699 42.8302 20.3999 42.9802 20.3399 43.1502C18.2299 48.0902 21.0499 50.9602 22.9199 50.8302C23.321 50.823 23.716 50.7301 24.0782 50.5576C24.4404 50.3851 24.7615 50.1371 25.0199 49.8302C20.3499 49.2202 20.2299 44.9402 20.5399 42.6602Z" fill="#4E374B"/>
<path d="M21.5896 40.0298C21.3996 40.4798 21.2196 40.9398 20.9696 41.5398C20.5596 43.5398 20.1996 48.5998 25.2996 49.4798C25.6998 49.0035 25.9595 48.4253 26.0496 47.8098C20.8796 47.6298 21.2296 42.1898 21.5896 40.0298Z" fill="#4E374B"/>
<path d="M22.2894 38.04C22.1494 38.44 22.0094 39.04 21.8194 39.43C21.5594 42.05 20.9694 47.09 26.1294 47.15C26.2401 46.5619 26.2401 45.9582 26.1294 45.37C22.2494 44.83 21.7094 40.62 22.2894 38.04Z" fill="#4E374B"/>
</svg>
