<svg width="41" height="40" viewBox="0 0 41 40" fill="none" xmlns="http://www.w3.org/2000/svg">
<path d="M34.1282 5.89602C30.3325 2.09364 25.3059 0 19.9711 0H19.9588C14.6663 0.0130194 9.59458 2.12431 5.85391 5.87165C2.11325 9.619 0.00840674 14.6971 0.000180329 19.9943C-0.0219594 25.2747 1.99522 30.2401 5.6819 33.976C9.4022 37.7463 14.4697 39.8851 19.9497 40H19.976C25.2895 40 30.3079 37.9228 34.0995 34.1499C37.8912 30.3771 39.9969 25.3683 40.0035 20.0665C40.0092 14.7302 37.924 9.69839 34.1282 5.89602ZM20.0063 38.7139H19.6701C14.9642 38.7139 10.2976 36.7615 6.83563 33.3366C3.21455 29.755 1.22279 25.0014 1.22771 19.9532C1.23263 14.9895 3.18503 10.3172 6.72493 6.78813C8.45608 5.05267 10.5129 3.67686 12.7772 2.73979C15.0414 1.80273 17.4684 1.32291 19.9186 1.32792H20.0055C25.0821 1.3509 29.8142 3.32307 33.3295 6.88169C36.8162 10.4108 38.7177 15.1135 38.6833 20.1247C38.6144 30.4001 30.248 38.7139 20.0063 38.7139Z" fill="#4E374B"/>
<path d="M29.3952 15.5483C27.032 13.4612 24.6327 11.3364 22.313 9.2805L20.5639 7.73181C20.1974 7.40352 19.9079 7.40352 19.5397 7.73181L17.9875 9.09173C15.5775 11.2026 13.088 13.3857 10.6281 15.5294C10.5182 15.619 10.4303 15.7326 10.3711 15.8615C10.312 15.9904 10.2832 16.1312 10.2869 16.273C10.291 19.5903 10.291 22.9626 10.291 26.2242V28.9136C10.291 29.4947 10.5174 29.7212 11.0979 29.7212H16.5172C17.1519 29.7212 17.3561 29.5177 17.3561 28.8825C17.3561 28.2746 17.3561 27.6664 17.3561 27.058C17.3561 25.6923 17.3561 24.2807 17.3561 22.8921C17.3535 22.4811 17.4437 22.0749 17.6199 21.7037C17.7961 21.3325 18.0538 21.0059 18.3737 20.7483C18.7714 20.4311 19.2507 20.233 19.7561 20.1769C20.2616 20.1208 20.7726 20.209 21.23 20.4313C21.6875 20.6536 22.0728 21.001 22.3413 21.4333C22.6099 21.8655 22.7507 22.365 22.7475 22.874C22.7475 24.2372 22.7475 25.6234 22.7475 26.9636C22.7475 27.6273 22.7475 28.2913 22.7475 28.9555C22.7475 29.4939 22.9788 29.7237 23.5192 29.7237H28.8934C29.4936 29.7237 29.706 29.5078 29.706 28.903V21.2785C29.706 19.6371 29.706 17.9464 29.706 16.2804C29.7131 16.1428 29.6888 16.0053 29.6349 15.8785C29.5811 15.7517 29.4991 15.6387 29.3952 15.5483ZM28.4539 26.6394V28.4549H24.0038C24.0038 27.8902 24.0038 27.3256 24.0038 26.7609C24.0038 25.4732 24.0038 24.142 23.9997 22.833C23.9801 21.7946 23.5527 20.8057 22.81 20.0804C22.0674 19.3551 21.0692 18.9517 20.0316 18.9575C18.994 18.9634 18.0004 19.3779 17.2659 20.1116C16.5315 20.8452 16.1152 21.8388 16.1072 22.8773C16.0999 24.1642 16.1023 25.4724 16.1072 26.7346C16.1072 27.3075 16.1072 27.8801 16.1072 28.4524H11.5481V25.4806C11.5481 22.4915 11.5481 19.503 11.5481 16.5151C11.5481 16.4076 11.5661 16.3821 11.6137 16.3403C13.8711 14.3706 16.1638 12.3606 18.3811 10.4188L20.0539 8.95385L20.0604 8.9596L21.7234 10.432C23.9423 12.3984 26.1623 14.3632 28.3834 16.3263C28.4106 16.3454 28.4322 16.3715 28.4459 16.4018C28.4596 16.4321 28.4649 16.4656 28.4613 16.4987C28.4539 19.8792 28.4539 23.3164 28.4539 26.6394Z" fill="#4E374B"/>
</svg>
