<svg width="43" height="43" viewBox="0 0 43 43" fill="none" xmlns="http://www.w3.org/2000/svg">
<path d="M42.5678 19.1981C42.1454 15.1155 40.5553 11.2414 37.9883 8.04025C35.4212 4.83909 31.986 2.44669 28.0945 1.14983C24.203 -0.14703 20.0203 -0.293315 16.0479 0.728509C12.0754 1.75033 8.4817 3.8969 5.69755 6.91091C2.9134 9.92492 1.05694 13.6785 0.350718 17.7216C-0.355509 21.7648 0.118463 25.9259 1.71582 29.7063C3.31317 33.4867 5.96613 36.7259 9.35667 39.0356C12.7472 41.3453 16.7315 42.6276 20.8318 42.7286C23.8638 42.8322 26.8818 42.2712 29.6743 41.0848C32.4669 39.8984 34.9664 38.1154 36.9979 35.8606C39.0861 33.6589 40.667 31.0261 41.6292 28.1474C42.5915 25.2687 42.9119 22.214 42.5678 19.1981ZM21.5813 41.5521C17.5621 41.586 13.6244 40.418 10.2728 38.1978C6.9213 35.9776 4.30874 32.8063 2.77007 29.0905C1.23139 25.3748 0.836711 21.2839 1.63662 17.3422C2.43653 13.4005 4.39458 9.78768 7.25977 6.96686C10.125 4.14605 13.7667 2.24577 17.7182 1.50965C21.6697 0.773522 25.7508 1.23508 29.4384 2.83517C33.126 4.43525 36.2521 7.10094 38.4159 10.4905C40.5797 13.8801 41.6826 17.8391 41.5832 21.86C41.414 27.0847 39.2425 32.0439 35.5188 35.71C31.795 39.3761 26.8045 41.4679 21.5813 41.5521Z" fill="#FAF6F1"/>
<path d="M31.9867 16.0362C31.7413 14.5422 30.9836 13.1803 29.8438 12.1846C28.704 11.1889 27.2532 10.6216 25.7407 10.5801C24.271 10.5801 22.8014 10.5801 21.3318 10.5801C19.8621 10.5801 18.5101 10.5801 17.1139 10.5801C15.3608 10.5954 13.6838 11.2992 12.4441 12.5397C11.2044 13.7803 10.5012 15.4584 10.4858 17.2127C10.4858 18.9187 10.4858 20.6394 10.4858 22.3453C10.4587 23.8619 10.5126 25.3788 10.6475 26.8896C10.7664 27.7108 11.0602 28.4969 11.509 29.1946C11.9578 29.8924 12.5511 30.4855 13.2487 30.9339C14.6204 31.8326 16.2404 32.2752 17.8781 32.1987C20.4353 32.1987 22.9925 32.0958 25.5496 32.0958C27.2912 32.0537 28.948 31.3347 30.1689 30.0911C31.3897 28.8475 32.0786 27.177 32.0895 25.4337C32.0895 24.0219 32.0895 22.61 32.0895 21.1982C32.1436 19.4769 32.1092 17.754 31.9867 16.0362ZM29.9586 21.4335C29.9586 22.7718 29.9586 24.1101 29.9586 25.4484C29.9547 26.6641 29.4703 27.829 28.6113 28.6886C27.7522 29.5483 26.5882 30.033 25.3733 30.0368C22.7377 29.978 20.1071 29.978 17.4813 30.0368C16.4377 30.0364 15.423 29.694 14.5923 29.0619C13.7616 28.4298 13.1607 27.5429 12.8813 26.5367C12.8259 26.36 12.7914 26.1773 12.7785 25.9925C12.7785 22.9434 12.7785 19.8991 12.7785 16.8598C12.8401 15.8913 13.219 14.9702 13.8567 14.2391C14.4943 13.508 15.355 13.0076 16.3056 12.8155C16.7908 12.7279 17.2823 12.6787 17.7752 12.6684H25.2263C26.3061 12.6179 27.3684 12.9545 28.2223 13.6177C29.0763 14.2808 29.6659 15.227 29.8851 16.2862C29.9983 17.0653 30.0229 17.8547 29.9586 18.6393C29.9733 19.5511 29.9586 20.4776 29.9586 21.4335Z" fill="#FAF6F1"/>
<path d="M21.3757 15.8745C19.9359 15.8783 18.5557 16.4504 17.5349 17.4664C16.514 18.4825 15.9349 19.8605 15.9233 21.3012C15.9269 22.7451 16.4946 24.1303 17.5052 25.1608C18.5158 26.1914 19.8891 26.7855 21.3316 26.8162C22.7816 26.8162 24.1721 26.2398 25.1974 25.2138C26.2227 24.1878 26.7987 22.7963 26.7987 21.3453C26.7987 19.8944 26.2227 18.5029 25.1974 17.4769C24.1721 16.4509 22.7816 15.8745 21.3316 15.8745H21.3757ZM21.3757 24.5955C20.9401 24.6096 20.5063 24.5347 20.1007 24.3752C19.695 24.2158 19.3262 23.9752 19.0166 23.6683C18.7071 23.3613 18.4634 22.9943 18.3005 22.5899C18.1376 22.1854 18.0588 21.7519 18.069 21.3159C18.2003 20.5302 18.6093 19.8177 19.2215 19.3084C19.8337 18.7991 20.6083 18.5268 21.4043 18.541C22.2003 18.5553 22.9648 18.8552 23.5583 19.3861C24.1519 19.917 24.5352 20.6436 24.6383 21.4336C24.6346 21.8577 24.5464 22.2769 24.3789 22.6665C24.2114 23.0561 23.9679 23.4084 23.6628 23.7028C23.3577 23.9972 22.9969 24.2278 22.6017 24.3811C22.2065 24.5343 21.7847 24.6072 21.361 24.5955H21.3757Z" fill="#FAF6F1"/>
<path d="M27.1363 14.7565C27.0159 14.7431 26.8941 14.7565 26.7795 14.7957C26.6649 14.8349 26.5604 14.8989 26.4733 14.9832C26.3863 15.0675 26.3189 15.17 26.276 15.2833C26.2331 15.3966 26.2157 15.518 26.2251 15.6389C26.2251 16.1683 26.5778 16.4036 27.1951 16.4183C27.8123 16.433 27.9299 16.1095 27.9299 15.6095C27.938 15.5003 27.9235 15.3907 27.8873 15.2875C27.851 15.1842 27.7938 15.0896 27.7193 15.0095C27.6448 14.9294 27.5546 14.8656 27.4542 14.822C27.3539 14.7785 27.2457 14.7562 27.1363 14.7565Z" fill="#FAF6F1"/>
</svg>
