<svg width="42" height="43" viewBox="0 0 42 43" fill="none" xmlns="http://www.w3.org/2000/svg">
<path d="M22.5393 0.10796C19.6031 -0.105298 16.6574 0.347796 13.9087 1.43545C11.16 2.5231 8.67496 4.21896 6.62802 6.40404C3.06671 10.006 0.955565 14.8659 0.718107 20.0088C0.461556 24.2109 1.41737 28.3971 3.4646 32.0377C5.51183 35.6784 8.55846 38.6099 12.219 40.4612C15.8795 42.3126 19.9893 43.0005 24.0284 42.4381C28.0675 41.8757 31.8544 40.0881 34.9098 37.3016C37.9651 34.5151 40.1517 30.855 41.1928 26.7843C42.2339 22.7136 42.0827 18.4153 40.7583 14.4334C39.434 10.4515 36.996 6.96498 33.7529 4.41495C30.5098 1.86492 26.6073 0.366028 22.5393 0.10796ZM20.9908 41.5828C17.1339 41.5162 13.3821 40.2732 10.2072 38.0099C7.03225 35.7466 4.5759 32.5642 3.14696 28.8627C1.71802 25.1612 1.38028 21.1059 2.17622 17.2067C2.97215 13.3075 4.86622 9.73835 7.62029 6.94811C10.3743 4.15787 13.8655 2.27106 17.6547 1.52489C21.4439 0.77873 25.3621 1.20653 28.9167 2.7545C32.4712 4.30247 35.5034 6.90151 37.632 10.2248C39.7606 13.5482 40.8906 17.4475 40.88 21.4324C40.8671 24.1083 40.341 26.7551 39.3322 29.2197C38.3234 31.6844 36.8518 33.918 35.0024 35.7917C33.153 37.6654 30.9626 39.1418 28.5576 40.1358C26.1527 41.1298 23.5809 41.6216 20.9908 41.5828Z" fill="#F7F7F7"/>
<path d="M29.26 18.277C28.3248 17.7047 27.2381 17.4532 26.1558 17.5586C25.0736 17.6641 24.0516 18.1211 23.2365 18.8641L22.0289 20.0382V17.5432H17.5112V31.647H22.0289V30.9425C22.0289 28.8145 22.0289 26.6865 22.0289 24.5731C22.0034 24.3034 22.0579 24.0322 22.1852 23.7953C22.8171 22.8475 23.6663 22.076 24.6571 21.5498C24.8855 21.4289 25.1413 21.3741 25.3974 21.3914C25.6535 21.4086 25.9003 21.4972 26.1116 21.6477C26.3229 21.7983 26.4907 22.0051 26.5973 22.2462C26.7039 22.4874 26.7453 22.7539 26.7171 23.0174V31.691H31.3342V22.0635C31.3355 21.3008 31.1451 20.5509 30.7815 19.8871C30.4179 19.2233 29.8936 18.6685 29.26 18.277Z" fill="#F7F7F7"/>
<path d="M11.3315 31.6615H15.8208V17.5283H11.3315V31.6615Z" fill="#F7F7F7"/>
<path d="M13.4615 15.6209C13.7528 15.6308 14.0431 15.58 14.3151 15.4715C14.5871 15.3631 14.8351 15.1993 15.0446 14.9898C15.254 14.7803 15.4205 14.5294 15.5341 14.2521C15.6478 13.9747 15.7063 13.6766 15.7061 13.3755C15.7306 13.0604 15.6916 12.7435 15.5917 12.4447C15.4918 12.146 15.3331 11.8718 15.1256 11.6395C14.918 11.4072 14.6662 11.2219 14.3859 11.0951C14.1056 10.9683 13.803 10.9028 13.497 10.9028C13.191 10.9028 12.8883 10.9683 12.608 11.0951C12.3278 11.2219 12.0759 11.4072 11.8684 11.6395C11.6609 11.8718 11.5022 12.146 11.4022 12.4447C11.3023 12.7435 11.2634 13.0604 11.2879 13.3755C11.2988 13.9675 11.5313 14.5321 11.9366 14.9508C12.3419 15.3695 12.8884 15.6096 13.4615 15.6209Z" fill="#F7F7F7"/>
</svg>
