<svg width="25" height="25" viewBox="0 0 25 25" fill="none" xmlns="http://www.w3.org/2000/svg">
<g clip-path="url(#clip0_1_352)">
<path d="M21.3306 3.68176C18.9578 1.30737 15.8167 0 12.4824 0H12.4747C9.16692 0.00812995 5.9971 1.32652 3.65918 3.66655C1.32127 6.00658 0.0057425 9.17759 0.000600987 12.4854C-0.0132364 15.7828 1.2475 18.8834 3.55168 21.2163C5.87686 23.5707 9.04408 24.9062 12.4691 24.978H12.4829C15.8039 24.978 18.9403 23.6808 21.3101 21.3249C23.6799 18.969 24.996 15.8412 25.0001 12.5305C25.0052 9.19825 23.703 6.05615 21.3306 3.68176ZM12.5044 24.1739H12.2953C9.35414 24.1739 6.43753 22.9546 4.27378 20.816C2.00958 18.5805 0.764218 15.6121 0.767805 12.4598C0.77088 9.36276 1.99113 6.44155 4.20357 4.24038C5.28535 3.15646 6.57073 2.29708 7.98581 1.71167C9.40088 1.12626 10.9177 0.826356 12.4491 0.829216H12.5034C15.6778 0.843566 18.6344 2.07509 20.8315 4.29727C23.0106 6.50099 24.1991 9.43759 24.1775 12.5669C24.134 18.9833 18.9065 24.1739 12.5044 24.1739Z" fill="white"/>
<path d="M12.3089 4.23779C10.7428 4.23942 9.24137 4.86222 8.13396 5.96953C7.02655 7.07685 6.40362 8.57824 6.40186 10.1443C6.40186 13.2705 11.7564 21.6677 11.9845 22.0234L12.3084 22.5292L12.6317 22.0234C12.8593 21.6677 18.2154 13.2705 18.2154 10.1443C18.2135 8.57838 17.5906 7.07714 16.4833 5.96986C15.376 4.86259 13.8748 4.23969 12.3089 4.23779ZM12.3089 21.0932C11.1342 19.2026 7.1706 12.6299 7.1706 10.1443C7.1706 8.78168 7.7119 7.47487 8.67541 6.51135C9.63893 5.54783 10.9457 5.00653 12.3084 5.00653C13.671 5.00653 14.9778 5.54783 15.9413 6.51135C16.9048 7.47487 17.4461 8.78168 17.4461 10.1443C17.4466 12.6299 13.483 19.2026 12.3089 21.0932Z" fill="white"/>
<path d="M12.3599 7.31274C11.8303 7.31274 11.3126 7.46979 10.8722 7.76403C10.4319 8.05827 10.0886 8.47649 9.88596 8.96579C9.68329 9.45509 9.63026 9.9935 9.73358 10.5129C9.83691 11.0324 10.0919 11.5095 10.4664 11.884C10.8409 12.2585 11.3181 12.5135 11.8375 12.6169C12.3569 12.7202 12.8953 12.6672 13.3846 12.4645C13.8739 12.2618 14.2922 11.9186 14.5864 11.4782C14.8806 11.0379 15.0377 10.5201 15.0377 9.99053C15.0369 9.28059 14.7545 8.59996 14.2525 8.09795C13.7505 7.59594 13.0698 7.31356 12.3599 7.31274ZM12.3599 11.8996C11.9823 11.8996 11.6132 11.7876 11.2993 11.5778C10.9854 11.3681 10.7407 11.0699 10.5962 10.7211C10.4517 10.3723 10.4139 9.98841 10.4876 9.6181C10.5612 9.24778 10.743 8.90762 11.01 8.64063C11.277 8.37365 11.6172 8.19183 11.9875 8.11817C12.3578 8.04451 12.7416 8.08231 13.0905 8.2268C13.4393 8.3713 13.7374 8.61598 13.9472 8.92992C14.157 9.24386 14.2689 9.61296 14.2689 9.99053C14.2684 10.4967 14.0671 10.9819 13.7092 11.3398C13.3513 11.6977 12.866 11.899 12.3599 11.8996Z" fill="white"/>
</g>
<defs>
<clipPath id="clip0_1_352">
<rect width="25" height="24.978" fill="white"/>
</clipPath>
</defs>
</svg>
