<svg width="25" height="25" viewBox="0 0 25 25" fill="none" xmlns="http://www.w3.org/2000/svg">
<path d="M21.33 3.68174C18.9577 1.30737 15.8161 0 12.4819 0C12.4793 0 12.4762 0 12.4742 0C9.14912 0.00204997 6.02189 1.3007 3.66955 3.65612C1.31722 6.01153 0.0144625 9.14696 0.000112705 12.4853C-0.0137246 15.7827 1.24701 18.8833 3.55117 21.2161C5.87634 23.5705 9.04354 24.9066 12.4685 24.9778H12.4701C12.4742 24.9778 12.4783 24.9778 12.4824 24.9778C15.8033 24.9778 18.9377 23.6807 21.3095 21.3248C23.6844 18.9658 24.9954 15.8427 25 12.5304C25.0056 9.1982 23.7024 6.05612 21.33 3.68174ZM12.2938 24.1753C9.35258 24.1753 6.43599 22.9561 4.27225 20.8174C2.00908 18.5804 0.764238 15.612 0.767313 12.4597C0.770388 9.36015 1.99063 6.441 4.20306 4.24036C6.416 2.03921 9.34233 0.829212 12.4491 0.829212C12.467 0.829212 12.4854 0.829212 12.5034 0.829212C15.6762 0.843562 18.6338 2.07508 20.8309 4.29725C23.01 6.50096 24.1984 9.43754 24.1769 12.5668C24.1339 18.9832 18.9049 24.1753 12.5039 24.1748C12.4793 24.1748 12.4537 24.1748 12.4286 24.1748H12.427C12.3829 24.1753 12.3384 24.1753 12.2938 24.1753Z" fill="#F4F0EA"/>
<path d="M19.1782 17.539C19.1936 17.539 19.2084 17.5395 19.2233 17.5395C19.5456 17.5395 19.7506 17.4795 19.8839 17.3478C20.0223 17.2105 20.0827 16.9922 20.0797 16.6406C20.0545 13.6497 20.053 10.8945 20.075 8.2183C20.0776 7.87852 20.0151 7.65559 19.8772 7.51721C19.7368 7.37628 19.518 7.31222 19.1638 7.31529C15.0603 7.33323 10.6667 7.33374 5.73142 7.31785C5.38652 7.31683 5.17024 7.3773 5.03443 7.51363C4.90272 7.64585 4.84225 7.85392 4.84532 8.16808C4.86992 11.0918 4.86941 13.9741 4.84481 16.7354C4.84225 17.0403 4.8976 17.2392 5.01957 17.3606C5.14564 17.4862 5.34244 17.5385 5.67402 17.5349C7.31553 17.5164 8.98421 17.5195 10.5986 17.5226C11.2079 17.5236 11.8173 17.5246 12.4261 17.5246C13.0503 17.5241 13.6771 17.5231 14.3028 17.5211C15.9008 17.517 17.5536 17.5123 19.1782 17.539ZM14.8312 12.7216L19.3683 8.50786V16.4571L14.8312 12.7216ZM12.4615 13.8357L6.17165 8.10453H18.7528L12.4615 13.8357ZM10.6852 13.274L12.4338 14.9145L12.4471 14.9268L14.2157 13.2853L18.6708 16.8379H6.24033L10.6852 13.274ZM10.0815 12.7159L5.57921 16.4356V8.55091L10.0815 12.7159Z" fill="#F4F0EA"/>
</svg>
