<svg width="35" height="35" viewBox="0 0 35 35" fill="none" xmlns="http://www.w3.org/2000/svg">
<path d="M29.862 5.15444C26.5408 1.83031 22.1426 0 17.4746 0C17.471 0 17.4667 0 17.4638 0C12.8088 0.00286995 8.43065 1.82099 5.13738 5.11856C1.8441 8.41614 0.0202475 12.8057 0.000157787 17.4795C-0.0192144 22.0958 1.74581 26.4366 4.97164 29.7026C8.22688 32.9987 12.661 34.8692 17.4559 34.969H17.4581C17.4638 34.969 17.4696 34.969 17.4753 34.969C22.1246 34.969 26.5128 33.153 29.8333 29.8547C33.1582 26.5521 34.9935 22.1797 35 17.5426C35.0079 12.8775 33.1833 8.47856 29.862 5.15444ZM17.2113 33.8454C13.0936 33.8454 9.01038 32.1385 5.98114 29.1444C2.81271 26.0126 1.06993 21.8569 1.07424 17.4436C1.07854 13.1042 2.78688 9.0174 5.88428 5.9365C8.9824 2.85489 13.0793 1.1609 17.4287 1.1609C17.4538 1.1609 17.4796 1.1609 17.5047 1.1609C21.9467 1.18099 26.0873 2.90511 29.1632 6.01614C32.214 9.10134 33.8778 13.2126 33.8477 17.5935C33.7874 26.5765 26.4669 33.8454 17.5054 33.8447C17.471 33.8447 17.4351 33.8447 17.4 33.8447H17.3978C17.3361 33.8454 17.2737 33.8454 17.2113 33.8454Z" fill="#4E374B"/>
<path d="M26.8503 24.5545C26.8718 24.5545 26.8926 24.5553 26.9134 24.5553C27.3647 24.5553 27.6517 24.4713 27.8383 24.2869C28.032 24.0946 28.1167 23.789 28.1124 23.2968C28.0772 19.1095 28.075 15.2523 28.1059 11.5056C28.1095 11.0299 28.0219 10.7178 27.8289 10.524C27.6324 10.3267 27.326 10.2371 26.8302 10.2414C21.0853 10.2665 14.9342 10.2672 8.02482 10.2449C7.54195 10.2435 7.23917 10.3282 7.04904 10.519C6.86464 10.7041 6.77998 10.9954 6.78428 11.4353C6.81872 15.5285 6.81801 19.5637 6.78357 23.4295C6.77998 23.8564 6.85747 24.1348 7.02823 24.3049C7.20473 24.4806 7.48025 24.5538 7.94446 24.5488C10.2426 24.523 12.5787 24.5273 14.8388 24.5316C15.6919 24.533 16.545 24.5345 17.3974 24.5345C18.2713 24.5337 19.1488 24.5323 20.0248 24.5294C22.2619 24.5237 24.5759 24.5172 26.8503 24.5545ZM20.7646 17.8101L27.1165 11.911V23.0399L20.7646 17.8101ZM17.4469 19.37L8.64114 11.3463H26.2548L17.4469 19.37ZM14.9601 18.5836L17.4081 20.8803L17.4268 20.8975L19.9028 18.5994L26.14 23.573H8.73729L14.9601 18.5836ZM14.1149 17.8023L7.81173 23.0098V11.9712L14.1149 17.8023Z" fill="#4E374B"/>
</svg>
