<svg width="25" height="25" viewBox="0 0 25 25" fill="none" xmlns="http://www.w3.org/2000/svg">
<path d="M22.2515 4.70912C20.2032 2.18532 17.553 0.650876 14.3745 0.148778C12.4767 -0.15115 10.5656 0.00290851 8.69382 0.606347C3.51315 2.27642 0.0312212 7.05173 0.0296857 12.4893V12.628L0 12.6311C0.0153547 12.7928 0.0291739 12.9556 0.0429931 13.1138C0.0818916 13.5647 0.122326 14.0309 0.192445 14.4819C0.540485 16.7282 1.45614 18.7407 2.91483 20.463C5.23287 23.2002 8.21475 24.7117 11.7786 24.9558C13.2173 25.0546 14.6043 24.8852 15.9018 24.4532C17.447 23.9388 18.66 23.0267 19.5066 21.7426C20.0204 20.9636 20.2272 20.1165 20.1218 19.2254C20.0379 18.515 19.762 17.8353 19.2793 17.1469C18.5766 16.1448 17.6569 15.3074 16.4679 14.5858C16.3481 14.5131 16.1721 14.468 15.9852 14.4619C15.608 14.4496 15.3127 14.6748 15.0742 14.8969C14.8695 15.0873 14.6678 15.2895 14.4728 15.485C14.3495 15.6084 14.222 15.7363 14.0946 15.8602C14.0633 15.8904 14.0383 15.917 14.0168 15.939C13.8069 16.1586 13.7046 16.0905 13.4927 15.917L13.4635 15.8935C12.4793 15.0889 11.5314 14.1128 10.4801 12.821C10.1095 12.3655 9.65195 11.7467 9.4032 10.9963C9.38426 10.9385 9.36635 10.8868 9.35048 10.8402C9.18517 10.3566 9.20769 10.287 9.61305 10.0075C9.65809 9.97679 9.70876 9.94148 9.76608 9.90104C9.92577 9.78793 10.0901 9.67738 10.2487 9.57041C10.455 9.43119 10.6684 9.28737 10.8711 9.13894C11.2207 8.88303 11.5805 8.44952 11.3113 7.83584C10.998 7.12236 10.6715 6.40018 10.3557 5.70154C10.1709 5.29259 9.98668 4.88416 9.80345 4.4747C9.72258 4.29454 9.59104 4.18399 9.38836 4.12717C9.03213 4.02686 8.67693 4.04119 8.33196 4.16914C7.81655 4.36057 7.34261 4.61443 6.92445 4.92408C6.11218 5.52496 5.61111 6.24049 5.39154 7.11212C5.23492 7.7345 5.29071 8.37479 5.36134 8.97669C5.54253 10.5219 6.04514 12.0497 6.85535 13.5181C7.5719 14.8166 8.52389 16.0342 9.85105 17.3491C10.974 18.4623 12.0821 19.2776 13.2383 19.8417C13.9774 20.2025 14.8643 20.5649 15.845 20.5162C16.3394 20.4917 16.776 20.4093 17.1783 20.2639C17.3283 20.2097 17.4301 20.0991 17.4567 19.9604C17.4833 19.8237 17.4317 19.6856 17.3155 19.5811C17.2034 19.4808 17.0764 19.4619 16.9045 19.5197C16.1352 19.7782 15.3552 19.7792 14.5864 19.5223C13.7911 19.2566 13.0105 18.8482 12.2003 18.2745C11.0717 17.4755 10.0118 16.4652 8.95945 15.1856C7.20851 13.0569 6.27597 10.8326 6.10707 8.38554C6.04769 7.52158 6.23349 6.82294 6.6757 6.25021C7.14658 5.64012 7.78584 5.19177 8.68716 4.83912C8.77622 4.80432 8.87603 4.79459 8.96048 4.81199C8.99374 4.81865 9.16162 4.85959 9.22202 4.99113C9.67498 5.97895 10.1361 6.99748 10.5917 8.01856C10.6387 8.124 10.5978 8.29034 10.5072 8.36046C10.2887 8.52987 10.0537 8.70185 9.7886 8.88661C9.67344 8.96697 9.5547 9.04528 9.44005 9.12103C9.28702 9.22186 9.12938 9.32627 8.98044 9.43477C8.58429 9.72344 8.45275 10.0991 8.56637 10.6166C8.71378 11.286 9.00398 11.9355 9.4549 12.6014C10.2277 13.7433 11.2115 14.8345 12.6456 16.1407C12.8769 16.3515 13.1503 16.5588 13.4809 16.7748C13.7798 16.9698 14.0894 16.954 14.4022 16.7277C14.6253 16.566 14.8331 16.3741 15.0107 16.2067C15.2523 15.9789 15.4765 15.7491 15.7442 15.4727C15.9617 15.2486 16.1593 15.3228 16.2872 15.4246C16.3594 15.482 16.4372 15.5331 16.5196 15.5874C16.5825 15.6288 16.6481 15.6718 16.7115 15.7184C17.7091 16.4508 18.3949 17.1628 18.8699 17.9592C19.5291 19.0652 19.5245 20.1805 18.855 21.2737C18.3217 22.1454 17.5908 22.821 16.6823 23.2816C15.605 23.8282 14.375 24.12 12.9225 24.1722C11.2959 24.2305 9.70774 23.9557 8.20195 23.3533C5.4376 22.2483 3.2168 20.1656 1.948 17.4898C0.679188 14.812 0.478554 11.7784 1.3855 8.94957C2.36667 5.88784 4.33462 3.57543 7.23512 2.07784C9.51529 0.900133 11.9736 0.53418 14.5419 0.990214C17.4419 1.50511 19.8229 2.9203 21.6184 5.1974C24.027 8.25195 24.7548 11.7426 23.7813 15.5726C23.5408 16.5184 23.1487 17.4433 22.5816 18.3993C22.5048 18.5293 22.4792 18.6737 22.511 18.796C22.5355 18.8897 22.5918 18.9644 22.6737 19.011C22.7833 19.0734 22.8959 19.0918 23.0008 19.0632C23.1144 19.032 23.2122 18.949 23.2843 18.8221C24.7507 16.2482 25.281 13.4971 24.8602 10.6452C24.5357 8.43928 23.658 6.44215 22.2515 4.70912Z" fill="#F4F0EA"/>
</svg>
