<svg width="35" height="35" viewBox="0 0 35 35" fill="none" xmlns="http://www.w3.org/2000/svg">
<path d="M31.1521 6.59276C28.2844 3.05945 24.5741 0.911226 20.1243 0.208289C17.4674 -0.21161 14.7918 0.00407192 12.1713 0.848886C4.91841 3.18699 0.0437096 9.87242 0.04156 17.4851V17.6793L0 17.6835C0.0214965 17.91 0.0408434 18.1378 0.0601903 18.3593C0.114648 18.9905 0.171256 19.6433 0.269423 20.2746C0.756678 23.4195 2.03859 26.237 4.08076 28.6482C7.32602 32.4803 11.5007 34.5963 16.49 34.9381C18.5042 35.0764 20.4461 34.8392 22.2625 34.2345C24.4258 33.5143 26.124 32.2374 27.3092 30.4396C28.0286 29.349 28.3181 28.1631 28.1705 26.9156C28.053 25.921 27.6668 24.9694 26.9911 24.0057C26.0072 22.6027 24.7196 21.4304 23.055 20.4201C22.8874 20.3183 22.6409 20.2553 22.3793 20.2467C21.8512 20.2295 21.4378 20.5447 21.1039 20.8557C20.8173 21.1223 20.5349 21.4053 20.2619 21.679C20.0892 21.8517 19.9108 22.0309 19.7324 22.2043C19.6887 22.2466 19.6536 22.2838 19.6235 22.3146C19.3297 22.622 19.1864 22.5267 18.8897 22.2838L18.8489 22.2509C17.471 21.1244 16.1439 19.758 14.6721 17.9494C14.1533 17.3117 13.5127 16.4453 13.1645 15.3949C13.138 15.3139 13.1129 15.2415 13.0907 15.1763C12.8592 14.4992 12.8908 14.4017 13.4583 14.0105C13.5213 13.9675 13.5923 13.9181 13.6725 13.8615C13.8961 13.7031 14.1261 13.5483 14.3482 13.3986C14.637 13.2037 14.9358 13.0023 15.2196 12.7945C15.709 12.4362 16.2127 11.8293 15.8358 10.9702C15.3973 9.9713 14.9401 8.96025 14.498 7.98216C14.2393 7.40963 13.9814 6.83782 13.7248 6.26458C13.6116 6.01236 13.4275 5.85758 13.1437 5.77804C12.645 5.6376 12.1477 5.65766 11.6647 5.8368C10.9432 6.10479 10.2796 6.4602 9.69422 6.89372C8.55706 7.73495 7.85555 8.73669 7.54815 9.95697C7.32889 10.8283 7.40699 11.7247 7.50588 12.5674C7.75954 14.7306 8.46319 16.8695 9.59749 18.9253C10.6007 20.7432 11.9334 22.4479 13.7915 24.2887C15.3636 25.8472 16.9149 26.9887 18.5336 27.7783C19.5683 28.2835 20.8101 28.7908 22.183 28.7227C22.8752 28.6884 23.4864 28.573 24.0496 28.3695C24.2596 28.2935 24.4022 28.1388 24.4394 27.9446C24.4767 27.7532 24.4043 27.5598 24.2417 27.4136C24.0847 27.2732 23.907 27.2466 23.6663 27.3276C22.5893 27.6895 21.4973 27.6909 20.421 27.3312C19.3075 26.9593 18.2147 26.3875 17.0804 25.5842C15.5004 24.4657 14.0165 23.0512 12.5432 21.2599C10.0919 18.2797 8.78635 15.1656 8.54989 11.7398C8.46677 10.5302 8.72688 9.55212 9.34598 8.7503C10.0052 7.89617 10.9002 7.26847 12.162 6.77477C12.2867 6.72604 12.4264 6.71243 12.5447 6.73679C12.5912 6.74611 12.8263 6.80343 12.9108 6.98758C13.545 8.37053 14.1906 9.79647 14.8283 11.226C14.8942 11.3736 14.8369 11.6065 14.7101 11.7046C14.4041 11.9418 14.0752 12.1826 13.704 12.4413C13.5428 12.5538 13.3766 12.6634 13.2161 12.7694C13.0018 12.9106 12.7811 13.0568 12.5726 13.2087C12.018 13.6128 11.8338 14.1388 11.9929 14.8632C12.1993 15.8005 12.6056 16.7098 13.2369 17.642C14.3188 19.2406 15.6961 20.7683 17.7038 22.5969C18.0277 22.8922 18.4104 23.1824 18.8733 23.4848C19.2917 23.7578 19.7252 23.7355 20.163 23.4188C20.4755 23.1924 20.7664 22.9237 21.015 22.6894C21.3532 22.3705 21.6671 22.0488 22.0418 21.6618C22.3464 21.348 22.623 21.4519 22.8021 21.5945C22.9031 21.6747 23.0121 21.7464 23.1274 21.8224C23.2156 21.8804 23.3073 21.9406 23.3961 22.0058C24.7927 23.0312 25.7529 24.0279 26.4178 25.1429C27.3407 26.6913 27.3343 28.2527 26.397 29.7832C25.6504 31.0035 24.6272 31.9494 23.3553 32.5943C21.8469 33.3596 20.1251 33.768 18.0915 33.8411C15.8143 33.9228 13.5908 33.538 11.4827 32.6946C7.61264 31.1476 4.50353 28.2319 2.7272 24.4858C0.950864 20.7368 0.669976 16.4898 1.9397 12.5294C3.31333 8.24298 6.06847 5.0056 10.1292 2.90897C13.3214 1.26019 16.763 0.747853 20.3587 1.3863C24.4186 2.10715 27.752 4.08842 30.2657 7.27635C33.6378 11.5527 34.6567 16.4396 33.2938 21.8016C32.9571 23.1258 32.4082 24.4206 31.6143 25.7591C31.5068 25.9411 31.4709 26.1432 31.5154 26.3144C31.5498 26.4455 31.6286 26.5502 31.7432 26.6154C31.8966 26.7028 32.0542 26.7286 32.2011 26.6885C32.3602 26.6447 32.497 26.5287 32.5981 26.351C34.651 22.7474 35.3933 18.896 34.8043 14.9033C34.35 11.815 33.1212 9.01901 31.1521 6.59276Z" fill="#4E374B"/>
</svg>
