<svg width="43" height="43" viewBox="0 0 43 43" fill="none" xmlns="http://www.w3.org/2000/svg">
<path d="M22.9358 0.097668C18.6705 -0.167124 14.424 0.854383 10.747 3.02972C7.06995 5.20505 4.13199 8.43385 2.31413 12.2974C0.496272 16.1609 -0.117629 20.481 0.552043 24.6973C1.22172 28.9136 3.14406 32.8316 6.06979 35.9433C8.99552 39.055 12.7897 41.2168 16.9601 42.1483C21.1306 43.0798 25.4851 42.738 29.4588 41.1673C33.4325 39.5967 36.8422 36.8695 39.2456 33.3396C41.649 29.8097 42.9352 25.6398 42.9376 21.3708C42.9265 15.9518 40.8543 10.7396 37.1405 6.78979C33.4267 2.83995 28.349 0.447747 22.9358 0.097668ZM21.6278 41.5868C17.6313 41.5752 13.728 40.3809 10.4105 38.1548C7.093 35.9286 4.51021 32.7704 2.98821 29.079C1.46621 25.3875 1.07326 21.3283 1.85898 17.4139C2.6447 13.4995 4.57384 9.90539 7.40284 7.08547C10.2318 4.26555 13.8338 2.34622 17.754 1.56984C21.6741 0.793452 25.7367 1.19483 29.4286 2.72328C33.1206 4.25174 36.2764 6.83873 38.4977 10.1576C40.7189 13.4765 41.9059 17.3784 41.9088 21.3708C41.9088 24.0293 41.3839 26.6617 40.3642 29.1173C39.3444 31.5729 37.8498 33.8034 35.966 35.6813C34.0821 37.5591 31.846 39.0472 29.3857 40.0606C26.9253 41.074 24.289 41.5926 21.6278 41.5868Z" fill="#F7F7F7"/>
<path d="M27.286 10.2279C24.6781 8.82819 21.6304 8.48641 18.7768 9.27362C16.6041 9.70724 14.6621 10.9119 13.3097 12.665C12.6055 13.5691 12.0914 14.6061 11.7985 15.7136C11.5055 16.8212 11.4397 17.9764 11.6049 19.11C11.6921 19.9677 11.9503 20.7992 12.3643 21.5556C12.7782 22.3121 13.3395 22.9781 14.0151 23.5144C14.8822 24.2338 15.1908 24.131 15.4848 23.0446C15.5949 22.7693 15.6786 22.4842 15.7346 22.1931C15.7763 21.9724 15.7399 21.744 15.6317 21.5471C14.7247 20.2691 14.3454 18.6911 14.5725 17.1409C14.7997 15.5908 15.6159 14.1876 16.8515 13.2229C17.712 12.54 18.7123 12.0545 19.7815 11.8008C20.8508 11.5471 21.9627 11.5314 23.0387 11.7547C23.9769 11.8832 24.8711 12.2324 25.6478 12.7735C26.4245 13.3146 27.0615 14.0321 27.5064 14.8672C28.3107 16.5738 28.4265 18.5243 27.8297 20.3139C27.6595 21.1869 27.2807 22.006 26.7254 22.7012C26.1701 23.3965 25.4549 23.9475 24.6406 24.3072C24.1638 24.5546 23.6254 24.6585 23.0907 24.6064C22.5559 24.5543 22.0478 24.3483 21.6279 24.0136C21.2471 23.6765 20.9876 23.2239 20.8894 22.7253C20.7911 22.2266 20.8595 21.7095 21.0841 21.2535C21.4662 19.9762 21.8336 18.6843 22.1716 17.3923C22.3061 16.9673 22.3017 16.5106 22.159 16.0883C22.0163 15.666 21.7428 15.3 21.378 15.0433C20.9803 14.8386 20.5372 14.7379 20.09 14.7507C19.6427 14.7636 19.2061 14.8895 18.8208 15.1167C18.2575 15.5874 17.826 16.196 17.5685 16.883C17.3109 17.5701 17.236 18.3121 17.3512 19.0366C17.5844 19.7108 17.6842 20.4238 17.6451 21.136C17.3772 22.5591 17.0288 23.9659 16.6017 25.3496C15.8047 27.7452 15.5635 30.2905 15.8963 32.7929C15.8963 33.1453 16.0579 33.4976 16.1608 33.9528C18.0936 31.4641 19.3718 28.5317 19.879 25.423C20.4222 26.0337 21.1115 26.4967 21.8826 26.7689C22.6537 27.0411 23.4812 27.1134 24.2879 26.9792C25.4162 26.9118 26.5136 26.5853 27.495 26.0251C28.4763 25.4649 29.3151 24.6861 29.946 23.7493C31.4677 21.6966 32.1221 19.1293 31.7684 16.5995C31.6054 15.2505 31.1108 13.9628 30.3287 12.8511C29.5466 11.7393 28.5013 10.8382 27.286 10.2279Z" fill="#F7F7F7"/>
</svg>
