<svg width="31" height="30" viewBox="0 0 31 30" fill="none" xmlns="http://www.w3.org/2000/svg">
<path d="M25.6188 4.42201C22.7694 1.57023 18.9962 0 14.9915 0H14.9823C11.0094 0.00976455 7.20228 1.59323 4.39431 4.40374C1.58634 7.21425 0.00631062 11.0228 0.000135366 14.9957C-0.0164841 18.9561 1.49773 22.68 4.26519 25.482C7.05787 28.3097 10.8619 29.9138 14.9755 30H14.9921C18.9808 30 22.7479 28.4421 25.5941 25.6125C28.4404 22.7828 30.0211 19.0262 30.026 15.0499C30.0334 11.0476 28.4681 7.27379 25.6188 4.42201ZM14.7656 29.0342C11.2331 29.0342 7.73004 27.5699 5.13124 25.0012C2.41304 22.3163 0.9179 18.7511 0.92344 14.9649C0.92344 11.2452 2.39088 7.73667 5.04753 5.09295C6.34689 3.79102 7.89081 2.75881 9.5905 2.0557C11.2902 1.35258 13.1121 0.992421 14.9515 0.995937H15.0192C18.83 1.01317 22.3823 2.49231 25.0211 5.16127C27.6383 7.80808 29.0658 11.3351 29.0399 15.0936C28.9863 22.8001 22.706 29.0342 15.0192 29.0342H14.7668H14.7656Z" fill="#FAF6F1"/>
<path d="M18.9372 19.7222C19.2087 20.1266 19.4789 20.515 19.8827 20.76C20.121 20.907 20.3853 21.0067 20.6613 21.0536C21.3126 21.154 21.8542 20.7582 22.0056 20.1051C22.0438 19.9414 22.1066 19.8915 22.2728 19.9014C22.5522 19.9174 22.8329 19.9057 23.129 19.9057C23.1492 20.3095 23.0971 20.7137 22.9751 21.0992C22.5602 22.51 21.5046 23.3151 20.0359 23.3865C18.6202 23.4542 17.5153 22.9021 16.6923 21.7615C16.5679 21.6022 16.4564 21.4332 16.3587 21.2561C16.2725 21.0838 16.1741 21.0666 15.998 21.109C14.7128 21.4223 13.4275 21.3996 12.1731 20.9859C9.52319 20.1088 7.73629 18.3656 7.09244 15.6154C6.21776 11.8957 8.2915 8.27203 11.9324 7.01202C16.0725 5.58213 20.6502 8.09352 21.5588 12.3715C22.1614 15.2097 21.3452 17.6362 19.1323 19.5573C19.0726 19.609 19.0117 19.6594 18.9372 19.7222ZM15.5277 19.7222C15.3289 19.1535 14.7275 18.2726 14.2967 17.9027C13.9618 17.6146 13.5771 17.4214 13.1364 17.4047C12.8243 17.3924 12.5098 17.4497 12.1681 17.478L11.7514 16.6433C12.3756 16.1269 13.0995 15.8924 13.883 15.821C15.5573 15.6671 16.853 16.2974 17.7566 17.7821C17.8526 17.5192 17.9345 17.321 17.9979 17.1173C18.2626 16.2746 18.358 15.4055 18.3844 14.5271C18.4214 13.3163 18.3703 12.113 18.0391 10.9385C17.8034 10.1032 17.431 9.34306 16.7274 8.79831C15.7801 8.06521 14.6851 7.96487 13.5476 8.12122C12.4101 8.27757 11.5655 8.87033 11.0442 9.89089C10.8585 10.2565 10.7107 10.6401 10.6028 11.0358C10.2649 12.2724 10.2335 13.5392 10.2951 14.8109C10.3369 15.7342 10.4588 16.6415 10.7875 17.5094C11.1962 18.5798 11.8868 19.3689 13.0207 19.7001C13.6128 19.8643 14.2311 19.912 14.8414 19.8404C15.0698 19.8146 15.2957 19.7616 15.5277 19.7222Z" fill="#FAF6F1"/>
</svg>
