<svg width="40" height="40" viewBox="0 0 40 40" fill="none" xmlns="http://www.w3.org/2000/svg">
<path d="M34.1287 5.89602C30.3321 2.09364 25.3063 0 19.9714 0H19.9591C14.6665 0.0130194 9.59472 2.12431 5.854 5.87165C2.11328 9.619 0.00840687 14.6971 0.000180332 19.9943C-0.0219598 25.2747 1.99525 30.2401 5.68199 33.976C9.40235 37.7463 14.47 39.8851 19.9501 40H19.9722C25.2858 40 30.3042 37.9228 34.0959 34.1499C37.8876 30.3771 39.9934 25.3683 40 20.0665C40.0082 14.7302 37.9245 9.69839 34.1287 5.89602ZM20.0066 38.7139H19.6721C14.9661 38.7139 10.2994 36.7615 6.83737 33.3366C3.2146 29.755 1.22199 25.0014 1.22773 19.9532C1.23265 14.9895 3.18508 10.3147 6.72175 6.79059C8.45302 5.0544 10.5102 3.67796 12.7749 2.74046C15.0397 1.80296 17.4673 1.3229 19.9181 1.32792H20.005C25.0816 1.3509 29.8139 3.32307 33.3292 6.88169C36.8159 10.4108 38.7175 15.1135 38.6831 20.1247C38.6142 30.3976 30.2501 38.7148 20.0066 38.7139Z" fill="#4E374B"/>
<path d="M26.2037 23.6628C29.4837 18.6433 27.4739 13.7469 24.5686 11.5072C22.9305 10.2336 20.8938 9.58351 18.8214 9.67264C16.749 9.76177 14.7755 10.5844 13.2526 11.9939C10.1841 14.8163 9.58879 19.588 11.8766 23.1105C13.041 24.9029 14.6482 26.1283 16.6999 26.7298C19.478 27.5448 22.0487 27.0122 24.4546 25.3699C25.0286 25.9641 25.5641 26.5189 26.107 27.0655C27.5772 28.5428 29.0253 30.0447 30.5465 31.467C30.8597 31.7608 31.505 31.9422 31.9019 31.8322C32.2562 31.7337 32.676 31.1757 32.7063 30.7932C32.7375 30.3968 32.4185 29.883 32.1069 29.5621C30.1734 27.585 28.1996 25.6465 26.2037 23.6628ZM19.1312 24.6017C15.7232 24.5779 12.9246 21.7292 12.9729 18.3364C13.0213 14.8894 15.8208 12.1211 19.2197 12.1531C20.0416 12.1574 20.8544 12.3245 21.6114 12.6448C22.3683 12.9651 23.0544 13.4322 23.6301 14.0193C24.2057 14.6063 24.6595 15.3017 24.9653 16.0652C25.2711 16.8287 25.4228 17.6452 25.4116 18.4677C25.3739 21.8843 22.567 24.6255 19.1312 24.6017Z" fill="#4E374B"/>
</svg>
