<svg width="42" height="42" viewBox="0 0 42 42" fill="none" xmlns="http://www.w3.org/2000/svg">
<path d="M19.8424 0.490596C15.8575 0.642196 12.0027 1.95195 8.74752 4.26028C5.49238 6.56861 2.97752 9.77584 1.50936 13.4912C0.0411946 17.2065 -0.31688 21.2696 0.478763 25.1853C1.27441 29.101 3.18942 32.7002 5.99046 35.5445C8.79149 38.3888 12.3576 40.3552 16.2543 41.2043C20.151 42.0534 24.2101 41.7484 27.9368 40.3266C31.6636 38.9047 34.8972 36.4273 37.2437 33.1963C39.5902 29.9653 40.9482 26.1201 41.1522 22.1293C41.2874 19.276 40.8309 16.4255 39.8116 13.7578C38.7923 11.0902 37.2322 8.66314 35.2299 6.62993C33.2276 4.59671 30.8265 3.00144 28.1781 1.94476C25.5296 0.888088 22.6914 0.392952 19.8424 0.490596ZM20.638 40.6218C16.7399 40.6193 12.9321 39.4456 9.70652 37.2524C6.48091 35.0591 3.98567 31.9471 2.5431 28.3182C1.10053 24.6894 0.776911 20.7105 1.61405 16.8955C2.45119 13.0805 4.41063 9.60461 7.23925 6.91691C10.0679 4.22921 13.6357 2.45314 17.482 1.81812C21.3282 1.18311 25.2761 1.71832 28.8156 3.35463C32.3552 4.99093 35.3239 7.65315 37.3381 10.9974C39.3524 14.3416 40.3197 18.2143 40.1151 22.1151C39.8633 27.1167 37.6997 31.8292 34.0732 35.275C30.4466 38.7209 25.6356 40.6355 20.638 40.6218Z" fill="#F7F7F7"/>
<path d="M30.3549 14.3277L32.1165 11.751C31.0084 12.1354 30.1276 12.4628 29.2752 12.7475C29.1841 12.7906 29.0847 12.813 28.9839 12.813C28.8832 12.813 28.7838 12.7906 28.6927 12.7475C28.098 12.1834 27.3728 11.7761 26.5821 11.5622C25.7915 11.3484 24.9602 11.3348 24.163 11.5225C23.3658 11.7102 22.6276 12.0934 22.0147 12.6377C21.4019 13.182 20.9335 13.8704 20.6518 14.6409C20.4597 15.5429 20.3221 16.4556 20.2398 17.3742C18.348 17.3081 16.4944 16.8219 14.8129 15.9506C13.0661 15.021 11.5322 13.736 10.3095 12.1781C9.65249 13.2186 9.41861 14.472 9.65596 15.6801C9.88171 16.868 10.5273 17.9345 11.4744 18.6839L11.3607 18.812L9.54231 18.2711C9.54089 19.3387 9.87692 20.3794 10.5022 21.2438C11.1275 22.1082 12.0099 22.752 13.0229 23.0828L12.9093 23.2252H11.3039C11.6037 24.1744 12.1759 25.0141 12.949 25.6394C13.7222 26.2648 14.662 26.6481 15.6511 26.7415C13.6085 28.253 11.071 28.9345 8.54785 28.6491L8.94563 28.9338C12.0217 30.7953 15.6954 31.397 19.2028 30.6137C22.3178 30.0223 25.1025 28.2922 27.0163 25.7592C29.002 23.2965 30.1118 20.2408 30.1702 17.0753C30.1718 16.7978 30.2382 16.5246 30.364 16.2774C30.4898 16.0302 30.6716 15.8159 30.8947 15.6517C31.5084 15.0746 32.0872 14.4614 32.6279 13.8152L32.5143 13.7156L30.3549 14.3277Z" fill="#F7F7F7"/>
</svg>
