<svg width="35" height="36" viewBox="0 0 35 36" fill="none" xmlns="http://www.w3.org/2000/svg">
<path d="M17.4985 35.0015C7.82887 34.9829 -0.01143 27.134 1.2509e-05 17.4836C0.0107399 7.83184 7.9011 -0.0363468 17.5322 0.000126294C27.1904 0.0373146 35.0271 7.91408 34.9999 17.558C34.9728 27.1755 27.1024 35.0201 17.4985 35.0015ZM14.5864 19.6234C11.4097 17.686 10.952 13.7169 12.9373 11.1509C14.8718 8.6507 18.5534 8.19657 21.0035 10.1668C22.2308 11.1545 22.9788 12.4325 23.1319 13.9965C23.3707 16.4366 22.3609 18.3018 20.2891 19.657C22.6405 20.3672 24.5021 21.6645 25.8917 23.6154C27.2791 25.5628 27.8748 27.7519 27.7976 30.157C31.6001 27.3586 35.0843 21.1195 33.5117 13.9765C31.9047 6.67471 25.5705 1.37895 18.0077 1.14581C10.5014 0.9141 3.75532 5.91664 1.77146 13.1841C-0.155892 20.2456 3.00011 26.8994 7.16091 30.0611C7.26031 24.9091 9.71617 21.4292 14.5864 19.6234ZM17.5128 33.8601C18.2709 33.7943 19.0333 33.76 19.7871 33.657C22.2064 33.3273 24.4334 32.4719 26.4702 31.1282C26.5596 31.0688 26.6483 30.9236 26.6454 30.8221C26.6154 29.9074 26.6469 28.9805 26.5067 28.0809C25.8845 24.0888 22.5347 20.925 18.5613 20.5116C14.3862 20.0775 10.5186 22.3882 8.99529 26.2071C8.41744 27.6561 8.30445 29.1615 8.34092 30.6962C8.34593 30.9236 8.40528 31.0574 8.60195 31.1839C11.3153 32.9282 14.2832 33.8072 17.5128 33.8601ZM17.5021 10.1168C14.9726 10.1153 12.928 12.15 12.9237 14.6738C12.9194 17.1897 14.9676 19.2544 17.4792 19.2658C20.0059 19.2773 22.077 17.2104 22.077 14.6788C22.0763 12.1614 20.0281 10.1189 17.5021 10.1168Z" fill="#4E374B"/>
</svg>
