<svg width="43" height="43" viewBox="0 0 43 43" fill="none" xmlns="http://www.w3.org/2000/svg">
<path d="M23.1453 0.108284C18.8735 -0.189268 14.6108 0.803962 10.9116 2.95884C7.21243 5.11371 4.24778 8.33053 2.40315 12.1911C0.558524 16.0516 -0.0807511 20.3772 0.568447 24.6055C1.21764 28.8339 3.12528 32.7693 6.04333 35.9001C8.96138 39.0309 12.7548 41.2122 16.9305 42.1605C21.1061 43.1088 25.4708 42.7802 29.457 41.2174C33.4432 39.6545 36.8665 36.9298 39.2818 33.3974C41.6971 29.8651 42.9927 25.6885 43.0001 21.4107C43.0026 16.0094 40.9552 10.808 37.2707 6.85486C33.5862 2.90175 28.5386 0.490909 23.1453 0.108284ZM21.3964 41.5974C18.6786 41.5616 15.9959 40.9792 13.5083 39.885C11.0208 38.7908 8.77935 37.2073 6.91781 35.2288C5.05627 33.2504 3.61277 30.9176 2.67344 28.3696C1.73411 25.8217 1.3182 23.1109 1.45053 20.3989C1.58287 17.6869 2.26073 15.0293 3.44367 12.5847C4.62661 10.1401 6.29039 7.95865 8.33573 6.17044C10.3811 4.38224 12.766 3.02395 15.3483 2.17664C17.9306 1.32932 20.6573 1.01035 23.3657 1.23874C28.5882 1.67981 33.4356 4.1277 36.8878 8.06715C40.3399 12.0066 42.1275 17.1303 41.8742 22.3598C41.6209 27.5894 39.3466 32.5168 35.5299 36.1049C31.7131 39.6931 26.6518 41.662 21.4111 41.5974H21.3964Z" fill="#F7F7F7"/>
<path d="M31.332 13.0725C30.7052 12.9309 30.0641 12.8619 29.4214 12.867C23.925 12.867 18.4432 12.9404 12.9468 12.9991C12.2691 12.9396 11.5934 13.1334 11.0504 13.5429C10.5075 13.9524 10.1359 14.5485 10.0075 15.216C9.43927 17.028 9.2101 18.9292 9.33146 20.8242C9.16676 22.9926 9.35033 25.1734 9.87522 27.2839C9.98508 27.8851 10.2738 28.4393 10.7038 28.8741C11.1338 29.3088 11.685 29.604 12.2854 29.721C12.8742 29.8119 13.4682 29.8658 14.0637 29.8825H21.7499V29.9853C24.6892 29.8972 27.6285 29.8091 30.5678 29.7504C31.0521 29.7785 31.5351 29.6745 31.9648 29.4495C32.3945 29.2245 32.7549 28.887 33.0074 28.4731C33.4032 27.7878 33.6721 27.0369 33.801 26.2562C33.992 24.9202 34.0508 23.5696 34.1243 22.2189C34.283 20.0932 34.1245 17.9557 33.654 15.8766C33.5939 15.2302 33.3402 14.617 32.926 14.1168C32.5118 13.6166 31.9563 13.2527 31.332 13.0725ZM18.6637 25.992V16.7868L26.3058 21.4114L18.6637 25.992Z" fill="#F7F7F7"/>
</svg>
